<svg height='300px' width='300px'  fill="#000000" xmlns="http://www.w3.org/2000/svg" xmlns:xlink="http://www.w3.org/1999/xlink" xml:space="preserve" version="1.1" style="shape-rendering:geometricPrecision;text-rendering:geometricPrecision;image-rendering:optimizeQuality;" viewBox="0 0 333 266" x="0px" y="0px" fill-rule="evenodd" clip-rule="evenodd"><defs><style type="text/css">
   
    .fil0 {fill:#000000}
   
  </style></defs><g><path class="fil0" d="M333 213c0,71 -106,71 -106,0 0,-70 106,-70 106,0zm-260 -173c29,0 29,45 0,45 -30,0 -30,-45 0,-45zm-73 -40l287 0 0 147c-5,0 -9,0 -14,0l0 -134 -260 0 0 194 201 0c-1,4 -1,9 0,13l-214 0 0 -220zm70 105l36 53 13 -19 58 -85 58 85 12 17c-15,8 -26,21 -31,37l-189 0 0 -25 2 -3 41 -60zm202 146l0 -30 -30 0 0 -15 30 0 0 -30 16 0 0 30 30 0 0 15 -30 0 0 30 -16 0z"></path></g></svg>